<svg width="53" height="54" viewBox="0 0 53 54" fill="none" xmlns="http://www.w3.org/2000/svg">
<path d="M52.5635 51.4349L46.4382 36.2928C46.2449 35.6663 45.7632 35.1797 45.1465 34.9944C44.5341 34.8152 43.864 34.9496 43.2645 35.4454L37.4601 41.1891L27.8819 22.9671C27.5364 22.3308 26.8651 22.0141 26.1293 21.9724C25.3893 21.9982 24.7413 22.4204 24.4038 23.1623L17.7863 40.7031L14.9581 36.923C14.5629 36.4303 13.9634 36.191 13.335 36.1873C12.7165 36.2223 12.1691 36.542 11.904 36.9678L0.276202 51.8829C-0.0306164 52.2793 -0.0864571 52.8138 0.131997 53.2642C0.351066 53.7121 0.808224 53.9999 1.30895 53.9999H50.7822C51.3995 53.9999 51.9812 53.7023 52.3377 53.2102C52.6949 52.7144 52.7875 52.097 52.5635 51.4349ZM13.4338 39.2573L18.8767 47.1051C19.1247 47.5015 19.5517 47.7224 19.988 47.7224C20.2261 47.7224 20.4661 47.6586 20.6802 47.5212C21.2945 47.1407 21.481 46.3313 21.0975 45.7177L19.599 43.3184L26.2907 25.5738L35.9628 43.9743C35.9647 43.9756 35.9659 43.9762 35.9659 43.978L39.8784 51.3779H3.99054L13.4338 39.2573ZM42.8417 51.3779L38.734 43.6111L44.3335 38.065L49.7169 51.3779H42.8417Z" fill="white"/>
<path d="M30.0244 35.5223C29.7047 34.873 28.9192 34.6043 28.2706 34.9209C27.6214 35.2406 27.3526 36.0242 27.6711 36.6734L30.4453 42.3244C30.6724 42.7883 31.1375 43.0602 31.6223 43.0602C31.8156 43.0602 32.0126 43.0154 32.1979 42.9258C32.8471 42.6061 33.1159 41.8225 32.7974 41.1732L30.0244 35.5223Z" fill="white"/>
<path d="M36.4205 7.13107L31.326 6.04064L28.7567 1.19598C28.3794 0.482932 27.6436 0.0257727 26.8379 0C26.0383 0.0159545 25.2725 0.390273 24.8522 1.07448L22.0779 5.61539L16.843 6.52971C16.0502 6.67023 15.3862 7.2268 15.1132 7.98464C14.8413 8.74248 14.9966 9.59298 15.5206 10.2072L19.0018 14.083L18.2341 19.5136C18.1206 20.3101 18.4452 21.1091 19.0815 21.6049C19.7179 22.1007 20.5764 22.2155 21.3219 21.9025L26.0819 19.7885L31.0082 22.1995C31.3199 22.3529 31.6592 22.4266 31.9961 22.4266C32.4404 22.4266 32.8822 22.2952 33.2608 22.0394C33.9279 21.5853 34.3016 20.8047 34.2377 19.999L33.699 14.8218L37.5109 10.8785C38.0724 10.303 38.2816 9.46166 38.0564 8.68786C37.8306 7.91468 37.2041 7.317 36.4205 7.13107ZM31.82 12.9962C31.3678 13.4564 31.137 14.0965 31.1898 14.742L31.5733 19.5578L27.2319 17.4346C26.9214 17.2843 26.5857 17.2076 26.247 17.2076C25.9543 17.2076 25.6603 17.2653 25.3805 17.38L20.9175 19.235L21.5956 14.4481C21.6852 13.8087 21.4962 13.1625 21.0777 12.6734L17.934 8.99898L22.702 8.16443C23.3365 8.04907 23.8918 7.67168 24.2257 7.12493L26.7459 2.99945L29.0102 7.26545C29.3139 7.84105 29.8515 8.25709 30.4749 8.40068L35.176 9.52609L31.82 12.9962Z" fill="white"/>
<path d="M26.5634 8.10376C25.8393 8.10376 25.2539 8.69224 25.2539 9.4151V14.164C25.2539 14.8869 25.8393 15.4754 26.5634 15.4754C27.2875 15.4754 27.8729 14.8869 27.8729 14.164V9.4151C27.8729 8.69224 27.2875 8.10376 26.5634 8.10376Z" fill="white"/>
<path d="M43.6357 11.0294C43.6357 11.7522 44.2224 12.3407 44.9452 12.3407H47.9116C48.6344 12.3407 49.2211 11.7522 49.2211 11.0294C49.2211 10.3065 48.6344 9.71802 47.9116 9.71802H44.9452C44.2224 9.71802 43.6357 10.3065 43.6357 11.0294Z" fill="white"/>
<path d="M43.7565 5.57055C44.1597 5.57055 44.5573 5.38523 44.8151 5.033L46.9131 2.17407C47.3414 1.59234 47.215 0.773138 46.6314 0.34482C46.0497 -0.0834981 45.2293 0.0410701 44.8003 0.626479L42.7023 3.48541C42.274 4.06714 42.4004 4.88634 42.9821 5.31466C43.2159 5.48771 43.4878 5.57055 43.7565 5.57055Z" fill="white"/>
<path d="M44.8003 21.4324C45.0581 21.784 45.4545 21.97 45.857 21.97C46.1258 21.97 46.3976 21.8871 46.6308 21.7141C47.2144 21.2858 47.3408 20.4672 46.9125 19.8848L44.8145 17.0259C44.3861 16.4405 43.5657 16.3159 42.9821 16.7442C42.4004 17.1726 42.274 17.9911 42.7023 18.5735L44.8003 21.4324Z" fill="white"/>
<path d="M9.05591 11.0294C9.05591 10.3065 8.46927 9.71802 7.74457 9.71802H4.78009C4.056 9.71802 3.46875 10.3065 3.46875 11.0294C3.46875 11.7522 4.05539 12.3407 4.78009 12.3407H7.74457C8.46866 12.3407 9.05591 11.7522 9.05591 11.0294Z" fill="white"/>
<path d="M6.83129 21.9695C7.23445 21.9695 7.63209 21.7842 7.88798 21.4319L9.98723 18.573C10.4155 17.9913 10.2891 17.1721 9.70741 16.7437C9.12384 16.3154 8.30341 16.44 7.87509 17.0254L5.77707 19.8843C5.34875 20.4661 5.47332 21.2853 6.05689 21.7136C6.29068 21.8866 6.56252 21.9695 6.83129 21.9695Z" fill="white"/>
<path d="M9.98838 3.48541L7.88913 0.626479C7.46204 0.0410701 6.64222 -0.0834981 6.05804 0.34482C5.47386 0.773138 5.3499 1.59173 5.77822 2.17407L7.87624 5.033C8.13397 5.38462 8.53161 5.57055 8.93477 5.57055C9.20354 5.57055 9.47538 5.48771 9.70856 5.31466C10.2903 4.88634 10.4167 4.06775 9.98838 3.48541Z" fill="white"/>
</svg>
