<svg width="74" height="53" viewBox="0 0 74 53" fill="none" xmlns="http://www.w3.org/2000/svg">
<path d="M73.6055 48.077V51.5965C73.6055 52.0541 73.2348 52.4215 72.7804 52.4215H56.5661C56.1116 52.4215 55.741 52.0541 55.741 51.5965C55.741 51.1388 56.1116 50.7714 56.5661 50.7714H71.9553V48.077C71.9553 41.1509 66.3216 35.5202 59.3985 35.5202C58.9441 35.5202 58.5735 35.1528 58.5735 34.6952C58.5735 34.2375 58.9441 33.8701 59.3985 33.8701C63.4982 33.8701 66.8306 30.5343 66.8306 26.438C66.8306 23.1538 64.6261 20.2177 61.4676 19.3024C61.0293 19.1767 60.7779 18.7191 60.9036 18.2807C61.0293 17.8424 61.487 17.591 61.9253 17.7199C65.7832 18.8383 68.4776 22.4254 68.4776 26.4377C68.4776 29.9442 66.4793 32.9835 63.5658 34.4982C69.3704 36.2838 73.602 41.6951 73.602 48.0798L73.6055 48.077ZM14.2579 22.3479C14.2579 10.004 24.262 0 36.6059 0C48.9498 0 58.9538 10.004 58.9538 22.3479C58.9538 27.0953 57.468 31.4947 54.9445 35.1143L61.7642 41.934C62.9793 43.1523 62.9793 45.1312 61.7642 46.3463C61.1744 46.9361 60.3912 47.2616 59.5564 47.2616C58.7217 47.2616 57.9386 46.9361 57.3487 46.3463L50.6933 39.6877C46.8483 42.814 41.9459 44.6897 36.606 44.6897C24.2621 44.6897 14.2581 34.6857 14.2581 22.3417L14.2579 22.3479ZM15.9081 22.3479C15.9081 33.7604 25.1935 43.0457 36.6059 43.0457C42.0784 43.0457 47.0579 40.9057 50.7608 37.4281L58.5152 45.1825C59.0696 45.7368 60.0397 45.7368 60.594 45.1825C61.1677 44.6088 61.1677 43.6774 60.594 43.1037L52.7558 35.2655C55.5952 31.7203 57.3001 27.2307 57.3001 22.3482C57.3001 10.9358 48.0147 1.6504 36.6023 1.6504C25.1899 1.6504 15.9045 10.9358 15.9045 22.3482L15.9081 22.3479ZM52.788 45.8048C52.3336 45.8048 51.963 46.1722 51.963 46.6298V50.7681H21.6415V46.6298C21.6415 44.9733 21.9187 43.3231 22.4634 41.7278C22.6116 41.2959 22.3796 40.8286 21.9509 40.6803C21.519 40.5353 21.0518 40.7641 20.9035 41.196C20.2976 42.9654 19.9914 44.7928 19.9914 46.6331V51.5964C19.9914 52.054 20.362 52.4214 20.8164 52.4214H52.788C53.2425 52.4214 53.6131 52.054 53.6131 51.5964V46.6331C53.6131 46.1754 53.2425 45.808 52.788 45.808V45.8048ZM18.4089 22.3479C18.4089 12.315 26.5726 4.15094 36.6059 4.15094C46.6388 4.15094 54.8029 12.3146 54.8029 22.3479C54.8029 27.5401 52.5597 32.5038 48.6503 35.965C45.3113 38.9171 41.0345 40.5448 36.6059 40.5448C32.2742 40.5448 28.0746 38.9881 24.7743 36.1583C24.7614 36.1487 24.7518 36.1358 24.7389 36.1261C20.7166 32.6583 18.4122 27.6402 18.4122 22.3515L18.4089 22.3479ZM46.8384 35.3107C44.0602 32.8354 40.5376 31.469 36.8022 31.469C32.967 31.469 29.3766 32.8935 26.573 35.4751C29.4543 37.6796 32.977 38.8946 36.6059 38.8946C40.3251 38.8946 43.9155 37.6183 46.8384 35.3107ZM36.8022 29.8188C41.6109 29.8188 45.5233 25.9061 45.5233 21.0978C45.5233 16.2892 41.6106 12.3768 36.8022 12.3768C31.9939 12.3768 28.0812 16.2894 28.0812 21.0978C28.0812 25.9064 31.9939 29.8188 36.8022 29.8188ZM20.059 22.348C20.059 26.9278 21.9638 31.2786 25.2996 34.4081C27.3171 32.5034 29.7118 31.1562 32.3223 30.4375C28.8415 28.7616 26.4308 25.2099 26.4308 21.0976C26.4308 15.3801 31.0847 10.7264 36.802 10.7264C42.5193 10.7264 47.1732 15.3804 47.1732 21.0976C47.1732 25.2101 44.7592 28.7618 41.2784 30.4375C43.7956 31.1336 46.1193 32.4195 48.0949 34.2244C51.3178 31.1078 53.1517 26.8212 53.1517 22.345C53.1517 13.2205 45.7293 5.79812 36.6049 5.79812C27.4804 5.79812 20.058 13.2206 20.058 22.345L20.059 22.348ZM17.0391 50.7677H1.64982V48.0733C1.64982 41.1472 7.28351 35.5165 14.2066 35.5165C14.6611 35.5165 15.0317 35.1491 15.0317 34.6914C15.0317 34.2338 14.6611 33.8664 14.2066 33.8664C10.107 33.8664 6.77452 30.5306 6.77452 26.4343C6.77452 23.2758 8.78242 20.4589 11.7669 19.4212C12.1988 19.2729 12.4244 18.8023 12.2761 18.3705C12.1278 17.9386 11.6573 17.7098 11.2255 17.8613C7.57706 19.1312 5.12445 22.5732 5.12445 26.4346C5.12445 29.9412 7.12269 32.9804 10.0362 34.4952C4.23164 36.2807 0 41.692 0 48.0767V51.5961C0 52.0538 0.370639 52.4212 0.825073 52.4212H17.0394C17.4938 52.4212 17.8645 52.0538 17.8645 51.5961C17.8645 51.1385 17.4938 50.7711 17.0394 50.7711L17.0391 50.7677Z" fill="white"/>
</svg>
